<svg version="1" xmlns="http://www.w3.org/2000/svg" width="533.333" height="533.333" viewBox="0 0 400.000000 400.000000"><path d="M170.3 55.1c-4.6 1.3-6.7 4.9-6 10 .3 2.3 1.1 4.7 1.8 5.3.9.8 1 .5.5-1.4-1.8-6.7-1.7-7.6.4-10.3 2.7-3.4 8-3.7 11-.7 1.7 1.7 2 1.8 2 .4 0-2-2.8-4.4-5-4.3-.8.1-3 .5-4.7 1z"/><path d="M200.2 55c-1.2.5-2.5 1.6-2.8 2.4-.3.8-1.3 1.5-2.2 1.5-.9 0-3 .3-4.7.6-1.6.3-4 .8-5.2 1.1-1.3.2-2.9 1.7-3.8 3.4-2.5 4.9-8 8.3-12.8 8.2-3.7-.2-4.5.2-6.5 3.2-3.9 5.7-3.9 10.3-.2 15.8 2.9 4.4 3 4.9 2 8.9-1.8 6.4.6 11.8 6.8 15.3l4.7 2.7-4.5-.6c-4.9-.7-7-2.6-7-6.1 0-1.3-.5-2.6-1.1-2.9-.6-.4-1.4-1.6-1.8-2.8-.7-1.9-1-1.6-3.4 2.4-1.5 2.5-2.7 5.1-2.7 5.8 0 .7-.7 1-1.8.7-3.9-1.3-18.4 10.6-25 20.4-8.5 12.6-11 25-7.4 35.6 2.8 8.1 12.7 19.3 21.9 24.8l4.8 2.9-.3 7.3c-.5 8.2.9 15.6 4 22.3 1.1 2.5 2.1 5.1 2.2 5.6.1.6 1.9 3.2 4.1 5.9 2.7 3.4 5.9 5.8 10 7.7 3.3 1.6 5.4 2.8 4.7 2.9-1.4 0-5.2 5.8-5.2 7.8 0 .9 1 1.2 2.6 1 2-.2 3.2-1.4 4.8-4.5l2.1-4.1 7.5-.6c4.1-.4 11.4-1.1 16.1-1.6 12.6-1.5 11.9-1.7 16.5 5.3 5.1 7.6 10.7 17.7 10.3 18.1-.8.7-6.8 3.6-7.5 3.6-.3 0 .1-1.1 1-2.5.9-1.3 1.6-3.4 1.6-4.6 0-3.3-6.7-14.7-9.1-15.4-2.2-.7-5.3 2.1-6.5 5.9-.4 1.1-1 2.3-1.3 2.6-.4.3-1.6 2.3-2.7 4.5s-4.3 8.3-7.1 13.5c-5.6 10.6-14.1 30.1-17.3 40-2 6-3.7 10.4-6.2 15.6-.7 1.5-.7 2.8.1 4.2.6 1.1 1.1 3 1.1 4.2 0 3.3 3.5 9.2 8.3 13.9 2.6 2.5 4.3 4.9 4 5.7-.3.8-.1 1.4.5 1.4.5 0 3.3 1.6 6.2 3.5 6.8 4.6 7.9 4.5 7.3-.4-.7-5 .6-5.7 5.7-3.1 2.3 1.2 5.1 2 6.3 1.8 2.2-.3 2.2-.4-2.9-4.7-1.6-1.3-1.6-1.5 0-2.7 1.2-.8 2.8-.9 5.8-.2 2.3.5 4.8.6 5.7.3 1.4-.6 1.3-.8-.3-2.1-1.4-.9-1.5-1.4-.6-1.4 1.2 0 1.2-.2-.1-1.5-.8-.8-4.6-2.2-8.4-3.1-3.9-.8-8.4-2.2-10.2-2.9-3.4-1.5-10.2-9.4-12.2-14.3-1.2-2.8-1-3.4 2.8-9 2.3-3.3 5.9-9.3 8-13.4 16.2-30.9 15.7-30.2 21.8-31.8 2.6-.8 5.7-1.9 6.8-2.6 1.9-1.3 2.4-.8 7.4 7.4 7.4 11.9 11.6 18.1 15.1 22.2 1.7 1.9 4.9 6.1 7.1 9.2 2.2 3.2 4.7 5.8 5.6 5.8 1.7 0 2.9 1.3 6.8 7.2 4.4 6.7 5.5 7 18.8 5.3 6.5-.8 12.2-1.7 12.7-2 .6-.3 2-.8 3.1-1 3.1-.6 3.3-1.1 1.1-3.3l-2.1-2.1 2.6-2.5c1.4-1.4 2.9-2.6 3.3-2.6 1.4 0 2-3.2.9-4.6-.8-1-.8-2.2 0-4.4 1.1-3.3.6-6-1.3-6-.6 0-4.7 2.1-9.1 4.6-8.1 4.8-23 10.8-24.5 9.9-.4-.3-1.1-1.7-1.5-3.2-1.1-4.6-10.5-23.6-13-26.3-2-2.2-11.9-21.1-11.2-21.5.1-.1 5.8-1.5 12.6-3 6.9-1.5 13.9-3.6 15.6-4.6 1.7-1 5.5-2.3 8.5-3 5.4-1.1 11.7-3.8 9.2-3.9-.7 0-2.1-2-3.2-4.5-2.2-5.2-.6-5.1-16.5-.9-11.7 3-15.9 4.5-23 8.3-5.4 2.9-5.6 3.1-2.6 3.1 1.7 0 8.1-1.4 14.2-3.1 12-3.3 16.8-3.6 10.9-.5-1.9.9-7 2.4-11.2 3.1-4.2.8-9.5 2.3-11.7 3.4-2.2 1.2-4.4 2.1-5 2.1-.5 0-2.9-3.5-5.4-7.7-3.2-5.5-4.3-8.1-3.6-8.9 1.3-1.6-1.9-8-8-15.6-3.4-4.2-5.8-6.2-9.1-7.5-5.6-2.1-7.1-3.3-4-3.3 4 0 16 7.8 17.5 11.4.7 1.7 2.3 4 3.4 5 1.3 1.2 2 3 1.9 4.5-.3 4.3.9 5.3 4.1 3.7 7.3-3.8 14.8-17.6 12.1-22.5-.6-1.2-1.6-2.1-2.3-2.1-.7 0-3.2-1.1-5.7-2.4-2.5-1.3-10.3-3.8-17.5-5.6-7.1-1.7-13.2-3.4-13.4-3.6-.3-.2-.7-2.3-1-4.6-.4-3.1-1.2-4.6-2.9-5.4-2.2-1.1-1.9-1.5 8.3-8.8l10.6-7.7 2.9 2.5c5.8 4.8 17.1 4.3 25.7-1.2 4.7-2.9 8.7-13.4 8.1-21.2-.3-4-.6-4.5-2.7-4.5-2 0-2.6.7-3.5 4.5-3 11.3-9.9 18.8-18 19.7-4.9.6-9.6-.2-9.6-1.6 0-.5 5.1-4.7 11.3-9.4 16.6-12.7 18.9-15.6 15.2-18.7-.8-.7-1.5-1.8-1.5-2.4 0-.6 1.4.5 3 2.4 2.6 3.2 3 3.4 4.5 1.9 1.4-1.3 1.4-2 .4-4.5-1.6-3.7-6.9-9.4-8.7-9.4-1.1 0-1.3.8-.8 3.6l.7 3.5-2.4-1.5c-2.9-1.9-3.9-1.2-2.7 1.9.8 2.2-.2 3.2-11.8 12.3-14 10.9-21.2 15.7-21.2 14.3 0-.6.4-1.2.9-1.6 1.2-.7-.2-3.5-5-10-3.7-5-8.9-18.5-8.9-23 0-4.2-2.8-13.4-5-16.5-1.2-1.7-3.2-3.3-4.5-3.6-2.5-.6-4-3-2.5-3.9 1.6-1-.9-4.5-3.2-4.5-1.1 0-3.6.9-5.4 2.1-5 3-4.1.9 2.1-5.5 3-3.1 5.5-6.3 5.5-7.1 0-1.1 1.1-1.5 4.1-1.5 4.4 0 12.8-1.9 13-2.9.1-.3.3-1.6.4-2.7.1-1.2.5-2.7.9-3.3.4-.7.1-2.2-.8-3.5-1.4-2.3-1.4-2.4 1.5-3 3.4-.7 8.1-5.3 7.7-7.5-.2-.9-1.8-2.5-3.7-3.6-1.8-1.1-4.6-3.2-6.3-4.6-3-2.4-3-2.6-1.7-6.2 1.2-3.4 1.1-3.9-.7-6.4-2.2-3-5.5-3.8-9.2-2.3zm5.3 2c1 1.6 1.6 8.2.8 7.8-3.3-1.5-7.3-4.5-7.3-5.4 0-2.7 5.1-4.6 6.5-2.4zm-4.2 8.2c1.8 1.3 5 4 7.2 6 3.5 3.4 3.7 3.8 1.7 3.8-2.4 0-6.2-2.1-9.9-5.3-1.3-1.2-2.9-1.7-3.9-1.3-1.9.7-3.4-.9-3.4-3.7 0-2.5 4.5-2.2 8.3.5zm7.7 25.3c.6.8.9 1.9.5 2.5-1 1.6-17.3.7-20.5-1.1-2.4-1.4-2.4-1.4 3-2 10.7-1.1 15.7-1 17 .6zm-29.3 27.1c-.3.3-1.2.4-1.9.1-.8-.3-.5-.6.6-.6 1.1-.1 1.7.2 1.3.5zm-7.7 7.7c.6 1.8 2 4.9 3.1 6.9 1.1 2.1 1.6 3.8 1.1 3.8-.4 0-2-2.5-3.5-5.5-3.4-7-5.4-7.1-11.1-.8l-4.3 4.7-1.8-3.2c-1.3-2.1-2.7-3.2-4.2-3.2-2.8 0-2.8-.4-.6-3 2.4-2.7 3-2.5 4.3 1.5.6 1.9 1.5 3.5 1.9 3.5.4 0 3.1-2 5.9-4.5 2.9-2.4 5.9-4.2 6.6-3.9.8.3 1.9 2 2.6 3.7zm15 3.5c0 .5.9 1.8 2 3 2.2 2.3 1.3 3.1-.9.9-1-1-1.4-.8-2.2.6-1.5 2.7-2.9 1.1-2.9-3.4 0-3.7.2-3.9 2-2.9 1.1.6 2 1.4 2 1.8zm11 3.1c0 2.7.3 5.8.7 6.8.3 1 .2 1.4-.3 1-1.1-1-2.2-12.7-1.2-12.7.4 0 .8 2.2.8 4.9zm-53 4.8c0 .3-.7 4.5-1.6 9.2-1.3 6.6-1.5 12.3-1.2 24.3.3 8.7.4 15.8.2 15.8s-1.4-1-2.7-2.3c-4-3.8-7.6-9.1-9.2-13.6-1.5-4.5-1.1-8.3 2.2-17.9 2.2-6.5 12.3-19.2 12.3-15.5zm40 2.9c0 2.3-2 5.5-3 4.9-.6-.3-1.4-1.4-2-2.5-.8-1.5-.7-1.7 1-1.3 1.4.4 2 0 2-1.1 0-.9.5-1.6 1-1.6.6 0 1 .7 1 1.6zm15 5.4c0 .5-.2 1-.4 1-.3 0-.8-.5-1.1-1-.3-.6-.1-1 .4-1 .6 0 1.1.4 1.1 1zm57.8 16.3c-1.3.9-3.1 2.2-4.1 2.8-1.7.9-1.7.8-.7-1.1.9-1.7-.2-1.2-4.2 1.9-4.5 3.4-16.8 12.1-30.8 21.6-10.7 7.3-14.5 10.2-18.4 13.8-2.6 2.4-2.7 2.6-.7 1.7 2.3-1.2 14.6-9.4 27.2-18.3 3.7-2.6 7-4.7 7.3-4.7.9 0-4 4.5-8.4 7.9-1.9 1.4-3.7 2.8-4 3.1-1 1.1-15.6 11.6-19.8 14.3L197 207l-2.3-2c-1.2-1.2-3.7-2.8-5.5-3.7-4.3-2-3.5-2.7 1.6-1.4 3.9 1.1 7.2.7 7.2-.9 0-.9-4.2-2.7-9.5-3.9-3.7-.8-3.5-.9 3.1-1 11-.2 13.4-1.5 45.7-25.3 4.3-3.2 8.5-5.8 9.3-5.8 1.8 0 6.2-2.7 8.8-5.3 1.9-1.9 2-1.9 3.3-.1 1.2 1.6 1.1 2.1-.9 3.7zm-66.5 7.4c8.4 1 6.1 2.3-4.2 2.3s-17 1.8-21.5 5.8c-2.3 2.1-7.6 9.2-7.6 10.3 0 .4 1.9.9 4.3 1.1 4.1.3 4.1.3-2.6 1.7-5.4 1.1-7.3 1.1-9.7.1-4-1.7-2.8-3.1 2.3-2.8 3.8.3 4.2.1 4.5-2.2.3-2.5 7.6-10.2 12.2-12.9 4.7-2.7 12.5-5 15-4.5 1.4.3 4.6.7 7.3 1.1zM211 171c0 .4 2 2.3 4.4 4.2l4.5 3.5-4.7 3.4c-2.6 1.9-7 4.9-9.9 6.7-4.5 2.9-5.5 3.2-7.4 2.1-1.5-.8-4.9-.9-11.1-.4-6 .4-8.8.3-8.8-.4 0-.6.7-1.1 1.5-1.1 2.3 0 14.9-5.9 14.2-6.6-.9-.9-6.7.4-10.2 2.2-5 2.6-10.4 4.4-12 3.8-2.1-.8 6.7-7.8 12.6-10 7.7-2.9 11.9-2.9 15.9 0 5 3.6 9.9 6.1 10.6 5.3.7-.6-.8-9.6-2.1-13-.6-1.3-.3-1.6.9-1.1.9.3 1.6 1 1.6 1.4zm-49.5 30.4c1.7 0 5-.4 7.5-.8 4.1-.6 5.1-.4 10.4 2.8 3.2 2 7.7 4.2 9.9 5l4 1.3-3.2 1.9c-1.7 1-3.1 2.2-3.1 2.7 0 1 .2.9 12.1-7 5.3-3.4 9.9-6.3 10.2-6.3.4 0 .7.7.7 1.5s-.4 1.5-1 1.5c-.5 0-1 .9-1 2.1 0 8.7-9.9 22.2-17.5 23.9-2.2.5-5.5 1-7.3 1-2 0-3.1.4-2.7 1 .7 1.1 0 1.2-3.3.4-3.5-1-7.7-10.3-10.6-23.6-.5-2.3-1.5-3-5.8-4.3-6.8-2-6.8-2-6.8 1.7 0 3.9-1.4 6.8-2.2 4.6-.3-.7-.6-3.5-.7-6.1l-.2-4.8 3.8.7c2.1.4 5.2.8 6.8.8zm-2.1 25.2c1.1 1.3 4.4 3.6 7.1 5.1 2.8 1.5 5.1 3.4 5.3 4 .4 2.4-3.6 1.3-6.4-1.7-1.6-1.6-4.1-3.2-5.7-3.6-3.1-.6-4.9-3.8-6.1-10.4l-.7-3.5 2.2 3.9c1.1 2.2 3.1 4.9 4.3 6.2zm53.1-5.5c.4.6-.2 1.3-1.4 1.6-1.2.3-2.1.9-2.1 1.4 0 .5-.5.9-1 .9-.6 0-.3-1.1.6-2.5 1.8-2.7 2.9-3.1 3.9-1.4zm-6.3 7.1c-.6.7-2.5 2.1-4.4 3.1l-3.3 1.9 3.8-3.7c2.1-2 4.1-3.4 4.4-3.1.3.3.1 1.1-.5 1.8zm-16.4 7.4c1.2.4 2.2 1.1 2.2 1.7 0 1.2-10.4.2-12.9-1.3-1.8-1.1 6.8-1.4 10.7-.4zm91.9 18c-.3.3-1.2.4-1.9.1-.8-.3-.5-.6.6-.6 1.1-.1 1.7.2 1.3.5z"/><path d="M196 182c2.7 2.1 6 3.2 6 2.1 0-.7-6.5-4.1-7.8-4.1-.4 0 .4.9 1.8 2zM169.7 62.9c-.9 1.5-1.4 3.1-1.1 3.4 1.1 1.1 4.5-.7 6.5-3.4l2-2.9h-2.8c-2.1 0-3.3.8-4.6 2.9zM290 117.7c-1.9 2-4.8 4.1-6.5 4.8-1.6.7-3 1.9-3 2.7-.2 4.8-2 9.1-4.6 11-1.5 1.2-3 2.7-3.3 3.5-.9 2.2 1.9 1.5 4.8-1.2 3.1-2.9 5-2.4 4.2 1.1-.8 2.8-1.2 2.8 7.5.8 6.8-1.5 7.1-1.7 8.9-5.9 1-2.3 3.2-5.8 4.9-7.8 2.8-3.2 3-3.8 1.9-5.6-.7-1.2-1.6-2.1-2-2.1-.5 0-.8-.6-.8-1.3 0-1.5-4.2-3.7-6.8-3.6-.9 0-3.3 1.6-5.2 3.6zM334.1 128.9c-1 1-2.8 2.2-4 2.6-1.2.3-2.1 1.1-2.1 1.6s-.4.9-1 .9c-.5 0-1-1.4-1-3 0-3.4-1-3.8-2.7-1.1-.7 1.1-2 1.8-3 1.5-4.6-1.1-6.1 4.8-2.8 10.9 1.7 3.3 1.7 3.4-.6 7-2.7 4.1-3.9 4.7-3.9 1.8 0-2.2-3.5-5.1-6.1-5.1-3.7 0-3 4.5 2.2 12.8 1.1 1.7.9 2.5-1.2 5.6-2.4 3.5-2.4 3.5-3 1.1-.4-1.3-1.6-3.4-2.8-4.6-1.7-1.8-2.3-2-3.6-.9-1.6 1.4-2 5-.7 6.5 1.4 1.6 3.4 12.4 2.6 13.7-1 1.5-2.1-2.1-2.3-6.8-.1-1.6-.7-3.9-1.5-4.9-1.2-1.6-1.6-1.7-3-.6-1.3 1.1-1.6 3.3-1.6 10.9 0 8.7-.1 9.4-1.5 7.6-1.3-1.6-1.6-1.7-2.5-.4-1.2 1.6-.7 18 .5 21.2.5 1.4-.6 1.9-7.2 3.4-4.3.9-9.4 2.4-11.3 3.3-1.9.8-6.4 1.8-10 2.1l-6.5.5 5.8 3.3c5.6 3.1 5.9 3.2 12 2.2 3.4-.5 7.6-.9 9.2-.9l3 .1-3.5 1c-10.5 2.9-15.5 4.7-15.8 5.7-.2.7 1.4.5 4.5-.5 11.3-3.5 14.2-3 3.4.6-6.9 2.3-13.2 7.3-10.5 8.4 1.9.7 21.6-2 26-3.6 1.8-.6 3.7-2.2 4.3-3.4 1-2.3 2-2.7 9.3-3.9 4.3-.7 5.5-2 3.8-4-1.8-2.2-4-1.8-8.4 1.1-2.1 1.4-6.8 3.4-10.4 4.5-8.6 2.5-10 2.4-3.7-.2 6.9-2.9 9.7-4.4 9.5-5.4-.3-1.3 2.3-2.5 5.8-2.5 3.7 0 5.2-2.2 3.3-5.1-.6-1.1-.8-1.9-.4-1.9.5 0 .9-1.1.9-2.4.2-2.3 0-2.4-5.5-2l-5.6.4 4.8-1.3c2.6-.8 5.5-2.1 6.5-3 1-1 2.3-1.7 2.9-1.7.5 0 1.5-1.2 2.2-2.7 1.8-4 0-5-4.5-2.2-2.1 1.2-3.4 1.7-3 1.1 1.1-1.8-.5-1.5-2.7.5-2 1.7-2 1.7-1.3-.2.5-1.1 1-2.7 1.3-3.5.4-1.6 7.1-5 9.8-5 1.9 0 4.7-5.4 3.9-7.5-.7-1.6-1.8-1.6-5.8 0-1.6.7-1.7.6-.7-1.3.6-1.1 1.9-2.3 2.9-2.6 1.1-.4 2.5-1.6 3.2-2.9.7-1.2 3.7-4.2 6.6-6.7 8.8-7.3 9.4-7.9 9.4-9.4 0-3.8-4.3-2.4-12 3.9-2.4 2-2.4 2-1 0 3.6-4.9 7.5-9.1 10.9-11.3 2-1.3 3.8-2.9 4-3.5.2-.5 1.7-2.4 3.3-4 1.8-2 2.5-3.4 1.9-4-.7-.7.6-2.8 3.4-6 3.4-3.9 4.2-5.4 3.3-6.4-1.5-1.8-3.5-1.6-5.7.6zm-41.4 66.8c-.3 1-.5.4-.5-1.2 0-1.7.2-2.4.5-1.8.2.7.2 2.1 0 3z"/><path d="M264 139.7c0 1.9 7.2 15.4 8.5 16 2.5.9 2.7-.2 1.1-4.2-1.3-3-1.3-3.6-.2-3.2 1.6.6 7.6-2.8 7.6-4.3 0-1.4-.4-1.3-4.5 1.2l-3.7 2.1-3.8-4.1c-3.6-4-5-5-5-3.5zM82.2 156.8c-1.1 1.1-2.8 3.3-3.8 5.1-1 1.7-2.4 3.1-3.1 3.1-.7 0-1.7 1-2.4 2.1-1.1 2.1-1.4 1.8-5.1-4-3.9-6.2-5.2-6.9-7.2-3.8-.7 1.2-.5 3 .8 6.9 2.2 6.3 6.4 13.8 7.7 13.8.5 0 .9 2.6.9 5.7v5.8l-4.6-4.8c-3.7-3.7-5-4.5-6-3.6-1.5 1.2-1.9 5.9-.6 5.9.5 0 1.3 1 1.9 2.2.6 1.3 2.9 4.4 5.2 6.9 3.1 3.5 4.4 6.2 5.5 11 .9 3.5 1.3 6.5 1.1 6.7-.3.3-1.9-.7-3.8-2.1-3.7-2.8-6.7-2.2-6.7 1.5 0 2.5 9.7 12.6 15.8 16.5 2.4 1.5 3.8 2.9 3.2 3.1-.6.2-2.1-.5-3.3-1.6-1.2-1.1-3.4-2.4-4.9-2.7-2.6-.7-2.8-.5-2.8 2 0 5 11.1 13.5 17.6 13.5 1.5 0 2.4.6 2.4 1.5 0 1.5-1.3 1.9-6.5 1.7-2.6-.1-2.7 0-1 .7 1.9.9 1.9 1-.2 1-1.2.1-2.8.4-3.7.7-1 .4-1.7-.2-2.2-2-1.5-6.2-6.4-5.3-6.4 1.3 0 4.1-.9 8.1-1.9 8.1-.3 0-2.5-2.4-4.7-5.3l-4.1-5.2.3-8c.4-9.4-.9-13.5-4-13.5-1.8 0-2.6 1.1-4.2 5.9l-2 6-3.7-3.6c-2.1-1.9-3.6-3.8-3.4-4.2.1-.3 1.3-2.8 2.6-5.4l2.2-4.8-2.3-4.2c-2.4-4.3-5.4-5.9-6.9-3.5-.5.7-.9 4.1-.9 7.6v6.2l-2.4-1.5c-2.8-1.9-9-1.2-11.9 1.3-1.6 1.4-1.5 1.7 2 3.8 9.2 5.6 9.6 5.7 11.6 4.5 1.6-1 2.4-.7 5.9 2.4 2.2 2 5.2 5 6.6 6.7 1.5 1.7 3.7 4 4.8 5.2l2.2 2.1-5.2-.4c-2.8-.3-4.1-.7-2.8-.9 1.2-.2 2-.7 1.7-1.1-.4-.8-6.9.3-11.3 2-4.8 1.9-3.2 6.9 2.3 6.9 1.1 0 2.7.9 3.5 2 1.7 2.3 3.6 2.6 4.3.6.3-.7 2.4-1.6 4.6-2 3.7-.6 4.6-1.4 4.2-3.9 0-.4.1-.7.2-.7.8 0 10.7 12.3 10.7 13.2 0 1.5-5.3-.1-6.3-1.8-.8-1.5-4.4-1.9-7.2-.8-2.7 1.1-3.8 5.3-2 8 1.3 2 2.4 2.4 6.8 2.4 2.8 0 7 .7 9.2 1.4 2.6.9 4.4 1.1 5.2.5.8-.7 2.2.9 4.8 5.6 3.8 6.7 4 9.2.7 6.2-1-1-3.3-1.7-5-1.7-3.8 0-5.6 2.7-4.5 6.7.4 1.6.6 3.4.4 4.1-.1.8.3 2 1 2.8 1 1.2 2.7 1.4 8.4.9 6.8-.7 7.2-.6 8.6 1.6 2.4 4 4.1 9.8 3.8 13.3-.4 3.8 1.4 6.6 4.2 6.6 2.4 0 6.9-6.7 6.9-10.3 0-4.5 2.7-8.7 5.5-8.7 1.3 0 7.1-1.5 12.7-3.4 9.8-3.2 16.5-4.7 35.8-8.2 4.7-.9 11-2.4 14-3.5 3-1 6.8-1.9 8.5-1.9 3.2 0 7.5-3.4 7.5-5.8 0-1.5 0-1.5-4.3.3-2 .8-4.9 1.5-6.4 1.4-2.3 0-1.9-.3 1.7-1.3 6.6-1.9 9.4-3.2 10.9-5 1.7-2 1.7-1.9-3.9-3.3-4.9-1.2-18.8-.2-19.9 1.4-.3.5-3.3 2.5-6.6 4.4-11.3 6.4-14.2 7.5-27.4 9.4-6.4.9-11.6 2.3-13.6 3.5-3.8 2.4-5.3 5-2.8 5 2.4 0 .4 1.7-2.9 2.5-2 .5-2.6.3-2.5-.9.1-.8-.2-1.6-.8-1.6-.5-.1-1.8-.6-2.7-1.1-2.7-1.5-5.3.5-6.8 5.1-1.8 5.3-3.6 6.9-4.6 3.8-.4-1.3-2-5-3.5-8.2-2.8-5.8-2.9-6-1-8 2-2.3 6.5-10.5 8-14.9.9-2.4 1.6-2.7 5.4-2.7 5.3 0 24.6-4.2 30.2-6.5 2.2-1 7.5-2 11.8-2.3 8.2-.5 10.2-1.6 7.2-3.9-2.7-1.9-9-1.6-17.6.8-31.6 8.9-34.9 9.5-34.9 6 0-1.1.4-2.2.8-2.5.5-.3 6.3-1 12.8-1.7 11.4-1.1 21.3-2.9 33.7-6.3 3.2-.9 7.5-1.6 9.6-1.6 4.7 0 9.3-3.2 7.4-5.1-1.4-1.4-11.6-1.4-14.2 0-3.4 1.8-23.4 6.2-34.6 7.6-6.3.8-14 2.2-17.1 3.1-5.9 1.7-8.7 1.2-3.8-.6 1.6-.6 3.1-1.6 3.5-2.2 1.6-2.5 12.7-6 21.9-6.8 9.7-.8 21-4.6 21-7 0-.6 1.4-1.6 3-2.2 1.7-.5 2.9-1.5 2.7-2.2-.5-1.5-12.7-1.6-14.7-.2-3.5 2.6-8 4.6-10.4 4.6-1.4 0-3.5.4-4.8.9-2.8 1.1-16 4.1-18 4.1-.8 0-2.1-1.1-2.8-2.5-1.2-2.2-1.1-2.8.8-4.8 4.5-4.8 5.2-11.6 1.3-13.6-1.4-.8-2.7-.4-5.8 1.9-2.2 1.6-4.3 2.7-4.7 2.3-1.4-1.4-.4-4.1 2.5-6.9 1.7-1.6 3.5-3.8 4-4.9.5-1.1 1.5-2.8 2.1-3.9 1.1-1.5 1-1.9 0-2.3-.8-.3-1.1-1.5-.6-3.7.4-2.3.1-3.8-1-4.9-1.6-1.5-4.6-1.3-4.6.3 0 .4-2 3.4-4.5 6.5-4.3 5.6-4.5 5.7-5.3 3.4-1.6-4.2-2.4-10.2-1.5-10.8 1.9-1.3 13.5-15.4 14.5-17.6 1.3-3 .3-7.1-1.9-7.9-2.7-1.1-6.5 2.5-9.9 9.3-1.8 3.4-3.4 6.5-3.8 6.8-.3.4-.6-2.8-.6-6.9 0-7.3.1-7.6 2.5-8.2 1.4-.4 3.6-2.3 5-4.4 1.4-2.1 3.9-4.8 5.5-6.1 3.2-2.3 4.1-6.5 1.6-7.4-.8-.3-1.6-1.6-1.8-2.9-.4-3.1-4.9-3.7-7.6-1zm2.3 97.9c2.5-.4 5.7-1 7.1-1.3l2.7-.7-1.9 3.2c-1.5 2.5-2.4 3.1-4.2 2.8-3.3-.6-2.3 1.5 1.6 3.3 3.5 1.7 3.5 4.3 0 7.1-1.5 1.1-1.7 1.8-.9 2.3.7.5.9 1.6.5 2.8-.8 2.5-5.4 9.4-5.4 8.1 0-.5-2-3.9-4.4-7.5l-4.4-6.5 1.1-7.6c.9-6.1 1.3-7.4 2.4-6.5.8.6 3.1.8 5.8.5zm85.8 24.4c-4.2 1.2-4.2 2.5-.1 3.4 2.7.6 2.9.9 1.3 1.7-2.6 1.5-12.4 3.7-16.5 3.8-3.4 0-3.3-.1 2.6-2.9 3.3-1.7 6.8-3.9 7.8-5 1.2-1.3 3.1-2.1 5-2l3.1.1-3.2.9zM101 313.5c-.7.9-1.5 1.3-1.7 1.1-.7-.7.7-2.6 1.9-2.6.6 0 .6.6-.2 1.5zM333.5 174.5c-.3.8-.7 2.1-.9 2.9-.6 1.9 1 8.2 3.1 12.3 1.6 3 1.6 3.3-.8 6.7-2.6 3.8-4.2 4.2-4.7 1-.5-2.5-4.2-6.5-5.4-5.8-.5.3-1.6 0-2.4-.7-1.3-1-1.7-1-2.5.2-1.2 2-1.1 3.4 1 11.8l1.8 7.3-2.5 4.5c-1.3 2.4-2.8 4.1-3.2 3.6-.4-.4-1.3-3-2-5.6-.9-3.4-1.6-4.5-2.3-3.8-1.8 1.8-2.9 1.3-2.2-.9.5-1.7.3-1.9-1.7-1.1-3.5 1.2-3.8 8.1-.5 12.4 4.2 5.6 4.3 12.7.2 12.7-.9 0-1.5 1-1.5 2.4 0 3.7-2.3 5-4.5 2.6-1.6-1.8-1.6-2-.2-2 1 0 1.7-.4 1.7-.8 0-1.7-2.5-3.2-5.5-3.2-1.7 0-3.6.5-4.3 1.2-2 2-1.5 12.4.8 16.8 2.4 4.6 2.5 7.3.6 10.3-2.1 3.2-3 9.3-1.6 10.2 2.8 1.7 5.6-.6 8.8-7.2l3.4-6.8 7.3.3c8.5.5 13.6-.9 17-4.6 3.8-4.1 3.3-6.7-1.8-9.1-2.4-1.2-5.1-2.1-6.1-2.1-2.1 0-6.9 4.7-6.1 6 .3.6 0 1-.7 1s-2.3.3-3.6.6l-2.2.6 2.5-5c1.4-2.8 3-5.4 3.6-5.8.6-.3 1.4-1.7 1.9-3 .9-2.2 1.5-2.4 8.2-2.4 4 0 8.9-.5 10.9-1 9.2-2.6 6.6-7.6-4.4-8.7-3.7-.3-6.7-.8-6.7-1 0-.2 1-1.8 2.2-3.6 2.1-3.3 5.9-4.8 17.3-7.2 4.6-.9 11.5-4.5 11.5-6 0-2.6-3.1-3.8-9-3.6-3.7.1-6-.2-6-.8 0-.6.6-1.1 1.4-1.1 2.5 0 14.6-5.9 15.2-7.4.3-.8 2-1.8 3.7-2.1 4.9-1 7.7-3.2 7.7-6 0-3.1-3.4-4.1-9-2.7-3.1.7-4 .7-4.4-.4-.9-2.4-5.3-1.5-8.8 1.6l-3.3 3.1-.6-4.2c-.6-4.7-3.7-7.9-7.5-7.9-1.4 0-2.7.7-2.9 1.5zM282 237.2c-3.5 1.7-6.5 2.2-13.6 2.3-10.6.2-12.6.9-9.2 3.4 3.2 2.3 17.3 1.8 23.1-.7 2.3-1.1 4.9-2.2 5.8-2.5.9-.3 1.9-1.5 2.2-2.6.7-2.8-2.3-2.8-8.3.1zM257.5 244.6c-.5.1-2.2.5-3.7.8-1.6.4-2.8 1.3-2.8 2.1 0 3.9 10.9 2.3 11-1.6 0-.8-3.1-1.7-4.5-1.3z"/><path d="M195.5 256.5c-1.6.7-6.8 1.7-11.4 2-5.8.5-10.3 1.6-14.5 3.5-3.4 1.5-7.4 3-9.1 3.4-2.7.7-4.4 2.1-4.5 3.7 0 .3 3.7 1.1 8.3 1.8 7.5 1.1 8.9 1.1 16.1-.8 4.4-1.2 9.1-2.1 10.6-2.1 3 0 8.8-3.9 5.9-4-.9 0-7 1.1-13.6 2.5-7.7 1.6-13.3 2.2-15.8 1.8l-3.9-.6 6-2.8c3.2-1.5 6.5-2.8 7.2-2.8 3.4-.2 19.3-4.5 20.9-5.7 2.2-1.6 1.7-1.6-2.2.1zM313.3 264.8c-2.8.4-4.2 5.7-2.1 7.8 1.2 1.2 1.7 1.2 3.5-.1 2.4-1.7 3.6-6.1 1.9-7.3-.6-.4-2.1-.6-3.3-.4zM126.5 274.4c-3.3 1.6-8.8 3.5-12.1 4.2-5.8 1.2-13.3 5-13.4 6.6 0 .5 2.6.8 5.8.8l5.7.1-5.5 1.9c-3 1.1-6.4 1.9-7.5 2-1.5 0-1.6.3-.7 1.2 1.3 1.3 3 1.1 28.8-3.5 16.2-2.9 22.4-4.8 27.7-8.4 3.7-2.6 6.4-6 5.4-6.9-.3-.3-6.7-.6-14.3-.7-13.5-.2-14.1-.1-19.9 2.7zm28.5-.4c0 .9-7 4.6-10.4 5.4-2.6.6-2.8.5-1.7-.8 1.1-1.3 1.1-1.6 0-1.6-1.7 0-17.3 2.6-21.4 3.5-1.8.4-.3-.7 3.5-2.6 5.2-2.6 8.1-3.4 14.5-3.9 11.6-.7 15.5-.8 15.5 0zm-37.7 7.7c-.7.2-1.9.2-2.5 0-.7-.3-.2-.5 1.2-.5s1.9.2 1.3.5zm18.4-.1c-.3.3-1.2.4-1.9.1-.8-.3-.5-.6.6-.6 1.1-.1 1.7.2 1.3.5zm-24 1c-.3.3-1.2.4-1.9.1-.8-.3-.5-.6.6-.6 1.1-.1 1.7.2 1.3.5zm19.6.1c-.7.2-1.9.2-2.5 0-.7-.3-.2-.5 1.2-.5s1.9.2 1.3.5z"/></svg>